<?xml version="1.0" standalone="no"?>
<!DOCTYPE svg PUBLIC "-//W3C//DTD SVG 20010904//EN"
 "http://www.w3.org/TR/2001/REC-SVG-20010904/DTD/svg10.dtd">
<svg version="1.0" xmlns="http://www.w3.org/2000/svg"
 width="1024.000000pt" height="1024.000000pt" viewBox="0 0 1024.000000 1024.000000"
 preserveAspectRatio="xMidYMid meet">
<metadata>
Created by potrace 1.11, written by Peter Selinger 2001-2013
</metadata>
<g transform="translate(0.000000,1024.000000) scale(0.100000,-0.100000)"
fill="#000000" stroke="none">
<path d="M2490 10225 c0 -4 30 -50 67 -103 149 -216 223 -323 298 -432 43 -63
91 -131 105 -151 14 -20 31 -45 38 -55 62 -90 460 -667 503 -729 31 -44 102
-147 159 -230 57 -82 164 -237 237 -344 74 -106 136 -199 139 -205 2 -6 -20
-27 -48 -46 -86 -58 -166 -141 -173 -178 -27 -157 -197 -393 -505 -702 -206
-207 -245 -244 -410 -384 -63 -54 -126 -108 -140 -120 -77 -67 -391 -312 -555
-435 -275 -205 -296 -222 -327 -266 -15 -22 -31 -58 -34 -80 -13 -75 -10 -896
2 -948 15 -59 43 -107 149 -256 161 -225 308 -347 474 -391 66 -17 187 -16
261 3 91 24 231 95 331 168 166 123 452 435 626 684 36 53 70 90 91 100 61 30
172 48 302 47 133 0 158 -5 425 -84 66 -20 138 -39 160 -42 22 -4 65 -11 95
-16 30 -5 87 -12 125 -15 39 -4 90 -8 115 -11 65 -7 390 -6 490 1 132 9 202
14 240 20 19 2 60 7 90 10 30 4 66 8 80 10 14 2 45 7 70 10 25 3 52 8 60 10 8
2 35 7 60 10 25 4 84 15 133 25 48 9 87 15 87 13 0 -23 -301 -454 -428 -613
-188 -236 -266 -324 -487 -546 -352 -354 -627 -560 -1011 -760 -364 -188 -618
-341 -884 -534 -41 -30 -77 -57 -80 -60 -3 -3 -39 -32 -80 -65 -229 -182 -491
-443 -518 -516 -13 -32 8 -83 40 -100 18 -11 454 -13 2223 -14 1210 0 2223 3
2250 8 94 16 173 82 209 173 15 38 88 308 100 369 5 25 16 78 51 240 10 46
113 603 119 640 3 22 8 51 11 65 2 14 25 153 50 310 26 157 48 299 51 315 3
17 7 41 9 55 4 27 4 29 42 260 13 85 26 166 28 180 2 14 6 39 9 55 3 17 19
120 36 230 17 110 32 211 35 225 10 64 28 187 30 205 2 28 17 136 20 156 2 9
6 40 10 70 3 30 8 65 10 79 2 14 7 50 10 80 3 30 8 69 10 85 2 17 6 62 10 100
4 39 8 81 10 95 2 14 7 63 10 110 4 47 8 101 10 120 21 213 21 779 0 912 -2
13 -6 50 -10 83 -8 83 -33 224 -55 321 -21 91 -78 274 -90 289 -4 6 -11 21
-15 35 -16 53 -109 228 -163 307 -148 215 -336 380 -582 511 -230 123 -573
224 -870 258 -30 4 -56 8 -58 9 -2 2 2 13 8 26 51 94 -127 293 -532 594 -84
63 -159 115 -165 115 -8 0 -13 -12 -13 -27 0 -24 -17 -151 -35 -258 -26 -157
-77 -357 -97 -380 -5 -6 -67 -10 -141 -11 -126 -1 -211 -12 -287 -37 -58 -20
-147 -75 -174 -109 -15 -18 -30 -38 -35 -44 -8 -10 -31 -71 -39 -104 -2 -8 -3
-46 -4 -83 0 -37 -4 -67 -9 -65 -5 2 -186 136 -404 298 -217 162 -652 487
-967 722 -315 235 -577 431 -583 435 -5 5 -82 62 -170 128 -88 65 -177 132
-197 148 -21 16 -38 26 -38 22z m2510 -2978 c21 -3 26 -10 31 -45 15 -115 -11
-269 -65 -382 -43 -89 -149 -196 -236 -237 -133 -62 -240 -85 -405 -85 -108 0
-256 10 -264 18 -9 9 -13 40 -17 150 -6 175 38 304 141 409 134 136 304 186
615 179 96 -2 186 -5 200 -7z"/>
<path d="M1767 1050 c-16 -5 -45 -21 -65 -37 -101 -76 -104 -88 -100 -505 4
-382 1 -370 76 -442 73 -72 -219 -66 3447 -66 2478 0 3321 3 3346 12 53 18
104 58 135 108 l29 45 3 340 c2 235 0 352 -8 379 -17 58 -49 100 -103 137
l-50 34 -3341 2 c-1837 1 -3354 -2 -3369 -7z"/>
</g>
</svg>
